<svg width="16" height="16" viewBox="0 0 16 16" fill="none" xmlns="http://www.w3.org/2000/svg">
<g clip-path="url(#clip0_2_294)">
<path d="M15.8372 5.83151C15.2782 4.1111 13.4237 3.16629 11.7034 3.72516C11.4761 3.79901 11.2461 3.90113 11.0187 4.02766C11.0688 3.77238 11.0948 3.52197 11.0948 3.28304C11.0948 1.45657 9.83272 0.00238037 8.03288 0.00238037C6.23041 0.00238037 4.90519 1.45979 4.90519 3.28304C4.90519 3.52194 4.93122 3.77235 4.98132 4.02766C4.75394 3.90116 4.52388 3.79901 4.29663 3.72516C2.57644 3.16619 0.721816 4.1111 0.162785 5.83151C-0.404153 7.57644 0.560473 9.51966 2.26913 10.0749C2.49638 10.1487 2.7425 10.2013 3.00082 10.2326C2.81022 10.4097 2.64204 10.597 2.50157 10.7903C1.43829 12.2538 1.76388 14.3095 3.22732 15.3727C4.69007 16.4355 6.58997 16.1152 7.65669 14.6469C7.79716 14.4536 7.92322 14.2358 8.03285 13.9998C8.14244 14.2358 8.26854 14.4536 8.409 14.6469C9.47716 16.1172 11.313 16.4333 12.7726 15.3727C14.2361 14.3094 14.5617 12.2538 13.4984 10.7903C13.358 10.597 13.1897 10.4097 12.9992 10.2326C13.2574 10.2013 13.5037 10.1487 13.7309 10.0749C15.4396 9.51969 16.4042 7.57647 15.8372 5.83151ZM8.03288 0.939724C9.26394 0.939724 10.1575 1.92522 10.1575 3.28304C10.1575 3.89416 9.91832 4.64763 9.51775 5.29857C9.46929 5.37735 9.44688 5.46513 9.44832 5.55166L8.96032 6.39629C8.81438 6.33313 8.65469 6.28416 8.49529 6.25169V4.32991C8.49529 4.0711 8.29169 3.86126 8.03288 3.86126C7.77407 3.86126 7.56422 4.0711 7.56422 4.32991V6.25172C7.40107 6.28497 7.24425 6.33566 7.09525 6.40094L6.55041 5.50857C6.54494 5.43626 6.52266 5.36426 6.48222 5.29857C6.08166 4.64763 5.8425 3.89416 5.8425 3.28304C5.84254 1.94713 6.78416 0.939724 8.03288 0.939724ZM2.55875 9.18344C1.35441 8.7921 0.651347 7.36113 1.05422 6.12116C1.45353 4.89229 2.77804 4.21738 4.007 4.6166C4.5115 4.78054 5.06235 5.14929 5.523 5.6246L6.32785 6.94285C6.19991 7.07869 6.088 7.22969 5.99513 7.39297L4.16616 6.79872C3.91979 6.71869 3.65557 6.85347 3.5756 7.0996C3.49557 7.34579 3.63035 7.61016 3.87647 7.69016L5.70475 8.28422C5.68357 8.47235 5.685 8.64116 5.70591 8.8206L4.53528 9.229C3.83369 9.37629 3.10413 9.36063 2.55875 9.18344ZM7.56416 12.1038C7.50357 12.8611 7.25529 13.6048 6.89844 14.096C6.13575 15.1457 4.82129 15.3722 3.77829 14.6144C2.73297 13.8549 2.50044 12.3866 3.25991 11.3412C3.88044 10.4871 4.95829 10.099 5.04004 10.0457L5.99978 9.71085C6.08622 9.86135 6.18844 10.0017 6.30491 10.1288L5.17444 11.6848C5.02228 11.8942 5.06872 12.1873 5.2781 12.3394C5.48738 12.4915 5.7805 12.4452 5.93272 12.2358L7.06288 10.6802C7.22144 10.7526 7.38913 10.8084 7.56413 10.844V12.1038H7.56416ZM8.03288 9.95388C7.25763 9.95388 6.62688 9.32316 6.62688 8.54788C6.62688 7.7726 7.2576 7.14188 8.03288 7.14188C8.80813 7.14188 9.43888 7.7726 9.43888 8.54788C9.43888 9.32316 8.80813 9.95388 8.03288 9.95388ZM12.2217 14.6144C11.1446 15.397 9.9051 15.1114 9.16728 14.096C8.81044 13.6048 8.55591 12.8611 8.49525 12.1039V10.8441C8.67025 10.8084 8.84419 10.7527 9.00275 10.6802L10.1329 12.2358C10.2851 12.4452 10.5782 12.4916 10.7875 12.3395C10.9969 12.1873 11.0434 11.8943 10.8912 11.6848L9.76075 10.1289C9.87622 10.0028 9.97772 9.86379 10.0637 9.71469L10.9373 10.0294C11.0449 10.1093 12.1105 10.4746 12.74 11.3412C13.4996 12.3866 13.267 13.8549 12.2217 14.6144ZM11.5004 9.23594L10.3593 8.82482C10.3811 8.64044 10.3819 8.4705 10.3609 8.28419L12.1892 7.69013C12.4354 7.61013 12.5701 7.34576 12.4901 7.09957C12.4101 6.85338 12.1457 6.71866 11.8995 6.79869L10.0706 7.39294C9.97607 7.22685 9.86188 7.07344 9.73113 6.93579L10.5052 5.59616C10.96 5.13469 11.4986 4.77722 11.993 4.6166C13.2218 4.21738 14.5464 4.89226 14.9458 6.1211C15.3486 7.3611 14.6456 8.79207 13.4412 9.18341H13.4413C12.9051 9.35763 12.1909 9.37532 11.5004 9.23594Z" fill="#DB3050"/>
</g>
<defs>
<clipPath id="clip0_2_294">
<rect width="16" height="16" fill="white"/>
</clipPath>
</defs>
</svg>
